<svg xmlns="http://www.w3.org/2000/svg" viewBox="0 0 100 56" fill="hsl(46 45% 54%)">
  <path d="M48.27 28.63c-3.23 0-5.84 2.62-5.84 5.84s2.61 5.84 5.84 5.84 5.84-2.62 5.84-5.84-2.62-5.84-5.84-5.84z" />
  <path d="M70.93 17.5c-3.22 0-5.84 2.61-5.84 5.84s2.62 5.84 5.84 5.84 5.84-2.61 5.84-5.84-2.62-5.84-5.84-5.84z" />
  <path d="M25.6 28.63c-3.22 0-5.84 2.62-5.84 5.84s2.62 5.84 5.84 5.84 5.84-2.62 5.84-5.84-2.62-5.84-5.84-5.84z" />
  <path d="M30.08 34.47l10.7-5.84v27.2c0 4.05-3.3 7.35-7.35 7.35s-7.35-3.3-7.35-7.35 3.3-7.35 7.35-7.35c.74 0 1.45.1 2.13.28v-8.23l-5.48-11.84z" />
  <path d="M52.74 23.33l10.76-5.83 10.8 5.83v19.7c0 4.05-3.3 7.35-7.35 7.35s-7.35-3.3-7.35-7.35 3.3-7.35 7.35-7.35c.72 0 1.45.1 2.12.28v-7.84L52.74 23.33z" />
  <path d="M8.44 34.47c-3.23 0-5.84 2.62-5.84 5.84s2.61 5.84 5.84 5.84 5.84-2.62 5.84-5.84-2.62-5.84-5.84-5.84z" />
  <path d="M89.22 34.47c-3.22 0-5.84 2.62-5.84 5.84s2.62 5.84 5.84 5.84 5.84-2.62 5.84-5.84-2.62-5.84-5.84-5.84z" />
  <path d="M30.08 45.95V55c0 1.7-1.4 3.1-3.1 3.1s-3.1-1.4-3.1-3.1v-9.05h6.2z" />
  <path d="M86.1 45.95V55c0 1.7-1.4 3.1-3.1 3.1s-3.1-1.4-3.1-3.1v-9.05h6.2z" />
</svg>
